# xmcd
#
# Track frame offsets:
#	150
#	12519
#	26579
#	39659
#	52933
#	69886
#	82464
#	96365
#	107313
#	119843
#	133423
#	144553
#	155649
#	165650
#	178950
#	193623
#	207790
#	217799
#	232646
#	246542
#
# Disc length: 3526 seconds
#
# Revision: 1
# Processed by: cddbd v1.5.2PL0 Copyright (c) Steve Scherf et al.
# Submitted via: audiograbber 1.83.01
#
DISCID=220dc414
DTITLE=Various Artist - The Historic Roots Of Ska [CD2)
DYEAR=2007
DGENRE=Ska
TTITLE0=Desmond Dekker - 007 (Shanty Town)
TTITLE1=Roland Alphonso - James Bond
TTITLE2=The Skatalites - Lucky Seven
TTITLE3=Don Drummond - Apanga
TTITLE4=Toots and The Maytals - Monkey Man
TTITLE5=Justin Hinds and The Dominoes - Carry Go Bring Come
TTITLE6=The Skatalites - Street Corner
TTITLE7=Tommy McCook - Musical Store Room
TTITLE8=Duke Reid - Rude Boy
TTITLE9=The Pyramids - Prisoner Of Alcatraz
TTITLE10=Justin Hinds and The Dominoes - Corner Stone
TTITLE11=Tommy McCook and The Skatalites - Strolling In
TTITLE12=Baba Brooks - River Bank Pt.1
TTITLE13=Baba Brooks - River Bank Pt.2
TTITLE14=Roland Alphonso - Yard Broom
TTITLE15=Don Drummond - Eastern Standard Time
TTITLE16=Justin Hinds and The Dominoes - Botheration
TTITLE17=Tommy McCook and Lester Sterling - Inez
TTITLE18=The Skatalites - Latin Goes Ska
TTITLE19=The Rico Rodriguez All-Stars - Bridge View Shuffle
EXTD=now: <Artist> - <Title>
EXTT0=
EXTT1=
EXTT2=
EXTT3=
EXTT4=
EXTT5=
EXTT6=
EXTT7=
EXTT8=
EXTT9=
EXTT10=
EXTT11=
EXTT12=
EXTT13=
EXTT14=
EXTT15=
EXTT16=
EXTT17=
EXTT18=
EXTT19=
PLAYORDER=
